M48
;DRILL file {KiCad (5.0.0-3-g5ebb6b6)} date Sunday, November 04, 2018 at 09:41:05 PM
;FORMAT={-:-/ absolute / inch / decimal}
FMAT,2
INCH,TZ
T1C0.0236
T2C0.0276
T3C0.0315
T4C0.0354
T5C0.0440
%
G90
G05
M72
T1
X4.7963Y-2.15
X4.875Y-2.15
T2
X4.775Y-1.975
X4.975Y-1.975
X4.15Y-1.725
X4.35Y-1.725
X4.7Y-1.8
X4.9Y-1.8
X4.35Y-2.35
X4.55Y-2.35
T3
X4.725Y-2.35
X4.8234Y-2.35
T4
X4.1Y-1.925
X4.1Y-2.025
X4.1Y-2.25
X4.1Y-2.35
T5
X4.325Y-1.9
X4.325Y-2.
X4.325Y-2.1
X4.325Y-2.2
X4.625Y-1.9
X4.625Y-2.
X4.625Y-2.1
X4.625Y-2.2
T0
M30
