G04 #@! TF.GenerationSoftware,KiCad,Pcbnew,(5.0.0-3-g5ebb6b6)*
G04 #@! TF.CreationDate,2018-11-04T21:38:41-05:00*
G04 #@! TF.ProjectId,555_Timer,3535355F54696D65722E6B696361645F,rev?*
G04 #@! TF.SameCoordinates,Original*
G04 #@! TF.FileFunction,Copper,L1,Top,Signal*
G04 #@! TF.FilePolarity,Positive*
%FSLAX46Y46*%
G04 Gerber Fmt 4.6, Leading zero omitted, Abs format (unit mm)*
G04 Created by KiCad (PCBNEW (5.0.0-3-g5ebb6b6)) date Sunday, November 04, 2018 at 09:38:41 PM*
%MOMM*%
%LPD*%
G01*
G04 APERTURE LIST*
G04 #@! TA.AperFunction,ComponentPad*
%ADD10R,1.200000X1.200000*%
G04 #@! TD*
G04 #@! TA.AperFunction,ComponentPad*
%ADD11C,1.200000*%
G04 #@! TD*
G04 #@! TA.AperFunction,ComponentPad*
%ADD12C,1.600000*%
G04 #@! TD*
G04 #@! TA.AperFunction,ComponentPad*
%ADD13C,1.800000*%
G04 #@! TD*
G04 #@! TA.AperFunction,ComponentPad*
%ADD14R,1.800000X1.800000*%
G04 #@! TD*
G04 #@! TA.AperFunction,ComponentPad*
%ADD15O,1.400000X1.400000*%
G04 #@! TD*
G04 #@! TA.AperFunction,ComponentPad*
%ADD16C,1.400000*%
G04 #@! TD*
G04 #@! TA.AperFunction,ComponentPad*
%ADD17R,1.676400X1.676400*%
G04 #@! TD*
G04 #@! TA.AperFunction,ComponentPad*
%ADD18C,1.676400*%
G04 #@! TD*
G04 #@! TA.AperFunction,Conductor*
%ADD19C,0.250000*%
G04 #@! TD*
G04 #@! TA.AperFunction,Conductor*
%ADD20C,0.254000*%
G04 #@! TD*
G04 APERTURE END LIST*
D10*
G04 #@! TO.P,C1,1*
G04 #@! TO.N,Net-(C1-Pad1)*
X123825000Y-54610000D03*
D11*
G04 #@! TO.P,C1,2*
G04 #@! TO.N,GND*
X121825000Y-54610000D03*
G04 #@! TD*
D12*
G04 #@! TO.P,C2,1*
G04 #@! TO.N,Net-(C2-Pad1)*
X120015000Y-59690000D03*
G04 #@! TO.P,C2,2*
G04 #@! TO.N,GND*
X122515000Y-59690000D03*
G04 #@! TD*
D13*
G04 #@! TO.P,D1,2*
G04 #@! TO.N,Net-(D1-Pad2)*
X104140000Y-59690000D03*
D14*
G04 #@! TO.P,D1,1*
G04 #@! TO.N,Net-(D1-Pad1)*
X104140000Y-57150000D03*
G04 #@! TD*
G04 #@! TO.P,D2,1*
G04 #@! TO.N,GND*
X104140000Y-51435000D03*
D13*
G04 #@! TO.P,D2,2*
G04 #@! TO.N,Net-(D2-Pad2)*
X104140000Y-48895000D03*
G04 #@! TD*
D15*
G04 #@! TO.P,R1,2*
G04 #@! TO.N,Net-(R1-Pad2)*
X124460000Y-45720000D03*
D16*
G04 #@! TO.P,R1,1*
G04 #@! TO.N,+5V*
X119380000Y-45720000D03*
G04 #@! TD*
D15*
G04 #@! TO.P,R2,2*
G04 #@! TO.N,Net-(C1-Pad1)*
X126365000Y-50165000D03*
D16*
G04 #@! TO.P,R2,1*
G04 #@! TO.N,Net-(R1-Pad2)*
X121285000Y-50165000D03*
G04 #@! TD*
G04 #@! TO.P,R3,1*
G04 #@! TO.N,+5V*
X115570000Y-59690000D03*
D15*
G04 #@! TO.P,R3,2*
G04 #@! TO.N,Net-(D1-Pad2)*
X110490000Y-59690000D03*
G04 #@! TD*
D16*
G04 #@! TO.P,R4,1*
G04 #@! TO.N,Net-(D1-Pad1)*
X110490000Y-43815000D03*
D15*
G04 #@! TO.P,R4,2*
G04 #@! TO.N,Net-(D2-Pad2)*
X105410000Y-43815000D03*
G04 #@! TD*
D17*
G04 #@! TO.P,U1,1*
G04 #@! TO.N,GND*
X109855000Y-48260000D03*
D18*
G04 #@! TO.P,U1,2*
G04 #@! TO.N,Net-(C1-Pad1)*
X109855000Y-50800000D03*
G04 #@! TO.P,U1,3*
G04 #@! TO.N,Net-(D1-Pad1)*
X109855000Y-53340000D03*
G04 #@! TO.P,U1,4*
G04 #@! TO.N,+5V*
X109855000Y-55880000D03*
G04 #@! TO.P,U1,5*
G04 #@! TO.N,Net-(C2-Pad1)*
X117475000Y-55880000D03*
G04 #@! TO.P,U1,6*
G04 #@! TO.N,Net-(C1-Pad1)*
X117475000Y-53340000D03*
G04 #@! TO.P,U1,7*
G04 #@! TO.N,Net-(R1-Pad2)*
X117475000Y-50800000D03*
G04 #@! TO.P,U1,8*
G04 #@! TO.N,+5V*
X117475000Y-48260000D03*
G04 #@! TD*
D19*
G04 #@! TO.N,Net-(C1-Pad1)*
X124675000Y-54610000D02*
X123825000Y-54610000D01*
X126365000Y-52920000D02*
X124675000Y-54610000D01*
X126365000Y-50165000D02*
X126365000Y-52920000D01*
X123405000Y-53340000D02*
X118660393Y-53340000D01*
X118660393Y-53340000D02*
X117475000Y-53340000D01*
X123825000Y-53760000D02*
X123405000Y-53340000D01*
X123825000Y-54610000D02*
X123825000Y-53760000D01*
X116636801Y-52501801D02*
X117475000Y-53340000D01*
X111231799Y-47096799D02*
X116636801Y-52501801D01*
X108756799Y-47096799D02*
X111231799Y-47096799D01*
X108691799Y-47161799D02*
X108756799Y-47096799D01*
X108691799Y-49636799D02*
X108691799Y-47161799D01*
X109855000Y-50800000D02*
X108691799Y-49636799D01*
G04 #@! TO.N,GND*
X121825000Y-59000000D02*
X122515000Y-59690000D01*
X121825000Y-54610000D02*
X121825000Y-59000000D01*
X110673462Y-48260000D02*
X109855000Y-48260000D01*
X117023462Y-54610000D02*
X110673462Y-48260000D01*
X121825000Y-54610000D02*
X117023462Y-54610000D01*
X105290000Y-51435000D02*
X104140000Y-51435000D01*
X105818201Y-51963201D02*
X105290000Y-51435000D01*
X110413337Y-51963201D02*
X105818201Y-51963201D01*
X111018201Y-51358337D02*
X110413337Y-51963201D01*
X111018201Y-48335001D02*
X111018201Y-51358337D01*
X110943200Y-48260000D02*
X111018201Y-48335001D01*
X109855000Y-48260000D02*
X110943200Y-48260000D01*
G04 #@! TO.N,Net-(C2-Pad1)*
X120015000Y-58420000D02*
X117475000Y-55880000D01*
X120015000Y-59690000D02*
X120015000Y-58420000D01*
G04 #@! TO.N,Net-(D1-Pad2)*
X109790001Y-58990001D02*
X110490000Y-59690000D01*
X109590001Y-58790001D02*
X109790001Y-58990001D01*
X105039999Y-58790001D02*
X109590001Y-58790001D01*
X104140000Y-59690000D02*
X105039999Y-58790001D01*
G04 #@! TO.N,Net-(D1-Pad1)*
X103505000Y-56515000D02*
X104140000Y-57150000D01*
X104140000Y-56000000D02*
X104140000Y-57150000D01*
X106800000Y-53340000D02*
X104140000Y-56000000D01*
X109855000Y-53340000D02*
X106800000Y-53340000D01*
X103659998Y-53340000D02*
X108669607Y-53340000D01*
X102979999Y-50209999D02*
X102914999Y-50274999D01*
X102914999Y-50274999D02*
X102914999Y-52595001D01*
X105300001Y-50209999D02*
X102979999Y-50209999D01*
X108669607Y-53340000D02*
X109855000Y-53340000D01*
X102914999Y-52595001D02*
X103659998Y-53340000D01*
X105365001Y-50144999D02*
X105300001Y-50209999D01*
X105365001Y-48939999D02*
X105365001Y-50144999D01*
X110490000Y-43815000D02*
X105365001Y-48939999D01*
G04 #@! TO.N,Net-(D2-Pad2)*
X105410000Y-47625000D02*
X104140000Y-48895000D01*
X105410000Y-43815000D02*
X105410000Y-47625000D01*
G04 #@! TO.N,Net-(R1-Pad2)*
X121285000Y-48895000D02*
X121285000Y-50165000D01*
X124460000Y-45720000D02*
X121285000Y-48895000D01*
X118110000Y-50165000D02*
X117475000Y-50800000D01*
X121285000Y-50165000D02*
X118110000Y-50165000D01*
G04 #@! TO.N,+5V*
X117475000Y-47625000D02*
X117475000Y-48260000D01*
X119380000Y-45720000D02*
X117475000Y-47625000D01*
X113665000Y-59690000D02*
X115570000Y-59690000D01*
X109855000Y-55880000D02*
X113665000Y-59690000D01*
X116636801Y-49098199D02*
X117475000Y-48260000D01*
X116311799Y-49423201D02*
X116636801Y-49098199D01*
X116311799Y-51540389D02*
X116311799Y-49423201D01*
X116948209Y-52176799D02*
X116311799Y-51540389D01*
X122836199Y-52176799D02*
X116948209Y-52176799D01*
X125872999Y-49139999D02*
X122836199Y-52176799D01*
X126857001Y-49139999D02*
X125872999Y-49139999D01*
X127390001Y-56480001D02*
X127390001Y-49672999D01*
X127390001Y-49672999D02*
X126857001Y-49139999D01*
X123055001Y-60815001D02*
X127390001Y-56480001D01*
X114790001Y-60815001D02*
X123055001Y-60815001D01*
X109855000Y-55880000D02*
X114790001Y-60815001D01*
G04 #@! TD*
D20*
G04 #@! TO.N,GND*
G36*
X116032659Y-52972461D02*
X116001800Y-53046962D01*
X116001800Y-53633038D01*
X116226081Y-54174501D01*
X116640499Y-54588919D01*
X116691393Y-54610000D01*
X116640499Y-54631081D01*
X116226081Y-55045499D01*
X116001800Y-55586962D01*
X116001800Y-56173038D01*
X116226081Y-56714501D01*
X116640499Y-57128919D01*
X117181962Y-57353200D01*
X117768038Y-57353200D01*
X117842539Y-57322341D01*
X119097901Y-58577703D01*
X118798466Y-58877138D01*
X118580000Y-59404561D01*
X118580000Y-59975439D01*
X118612956Y-60055001D01*
X116863805Y-60055001D01*
X116905000Y-59955548D01*
X116905000Y-59424452D01*
X116701758Y-58933783D01*
X116326217Y-58558242D01*
X115835548Y-58355000D01*
X115304452Y-58355000D01*
X114813783Y-58558242D01*
X114442025Y-58930000D01*
X113979802Y-58930000D01*
X111297341Y-56247539D01*
X111328200Y-56173038D01*
X111328200Y-55586962D01*
X111103919Y-55045499D01*
X110689501Y-54631081D01*
X110638607Y-54610000D01*
X110689501Y-54588919D01*
X111103919Y-54174501D01*
X111328200Y-53633038D01*
X111328200Y-53046962D01*
X111103919Y-52505499D01*
X110689501Y-52091081D01*
X110638607Y-52070000D01*
X110689501Y-52048919D01*
X111103919Y-51634501D01*
X111328200Y-51093038D01*
X111328200Y-50506962D01*
X111103919Y-49965499D01*
X110856357Y-49717937D01*
X111052898Y-49636527D01*
X111231527Y-49457899D01*
X111328200Y-49224510D01*
X111328200Y-48545750D01*
X111169452Y-48387002D01*
X111328200Y-48387002D01*
X111328200Y-48268002D01*
X116032659Y-52972461D01*
X116032659Y-52972461D01*
G37*
X116032659Y-52972461D02*
X116001800Y-53046962D01*
X116001800Y-53633038D01*
X116226081Y-54174501D01*
X116640499Y-54588919D01*
X116691393Y-54610000D01*
X116640499Y-54631081D01*
X116226081Y-55045499D01*
X116001800Y-55586962D01*
X116001800Y-56173038D01*
X116226081Y-56714501D01*
X116640499Y-57128919D01*
X117181962Y-57353200D01*
X117768038Y-57353200D01*
X117842539Y-57322341D01*
X119097901Y-58577703D01*
X118798466Y-58877138D01*
X118580000Y-59404561D01*
X118580000Y-59975439D01*
X118612956Y-60055001D01*
X116863805Y-60055001D01*
X116905000Y-59955548D01*
X116905000Y-59424452D01*
X116701758Y-58933783D01*
X116326217Y-58558242D01*
X115835548Y-58355000D01*
X115304452Y-58355000D01*
X114813783Y-58558242D01*
X114442025Y-58930000D01*
X113979802Y-58930000D01*
X111297341Y-56247539D01*
X111328200Y-56173038D01*
X111328200Y-55586962D01*
X111103919Y-55045499D01*
X110689501Y-54631081D01*
X110638607Y-54610000D01*
X110689501Y-54588919D01*
X111103919Y-54174501D01*
X111328200Y-53633038D01*
X111328200Y-53046962D01*
X111103919Y-52505499D01*
X110689501Y-52091081D01*
X110638607Y-52070000D01*
X110689501Y-52048919D01*
X111103919Y-51634501D01*
X111328200Y-51093038D01*
X111328200Y-50506962D01*
X111103919Y-49965499D01*
X110856357Y-49717937D01*
X111052898Y-49636527D01*
X111231527Y-49457899D01*
X111328200Y-49224510D01*
X111328200Y-48545750D01*
X111169452Y-48387002D01*
X111328200Y-48387002D01*
X111328200Y-48268002D01*
X116032659Y-52972461D01*
G36*
X126630001Y-56165199D02*
X123795325Y-58999876D01*
X123768864Y-58935995D01*
X123522745Y-58861861D01*
X122694605Y-59690000D01*
X122708748Y-59704143D01*
X122529143Y-59883748D01*
X122515000Y-59869605D01*
X122500858Y-59883748D01*
X122321253Y-59704143D01*
X122335395Y-59690000D01*
X121507255Y-58861861D01*
X121261136Y-58935995D01*
X121258710Y-58942746D01*
X121231534Y-58877138D01*
X121036651Y-58682255D01*
X121686861Y-58682255D01*
X122515000Y-59510395D01*
X123343139Y-58682255D01*
X123269005Y-58436136D01*
X122731777Y-58243035D01*
X122161546Y-58270222D01*
X121760995Y-58436136D01*
X121686861Y-58682255D01*
X121036651Y-58682255D01*
X120827862Y-58473466D01*
X120782953Y-58454864D01*
X120789888Y-58419999D01*
X120775000Y-58345152D01*
X120775000Y-58345148D01*
X120730904Y-58123463D01*
X120658507Y-58015113D01*
X120605329Y-57935526D01*
X120605327Y-57935524D01*
X120562929Y-57872071D01*
X120499476Y-57829673D01*
X118917341Y-56247539D01*
X118948200Y-56173038D01*
X118948200Y-55586962D01*
X118723919Y-55045499D01*
X118309501Y-54631081D01*
X118258607Y-54610000D01*
X118309501Y-54588919D01*
X118723919Y-54174501D01*
X118754778Y-54100000D01*
X120694364Y-54100000D01*
X120577193Y-54441036D01*
X120607518Y-54931413D01*
X120736836Y-55243617D01*
X120962265Y-55293130D01*
X121645395Y-54610000D01*
X121631253Y-54595858D01*
X121810858Y-54416253D01*
X121825000Y-54430395D01*
X121839143Y-54416253D01*
X122018748Y-54595858D01*
X122004605Y-54610000D01*
X122018748Y-54624143D01*
X121839143Y-54803748D01*
X121825000Y-54789605D01*
X121141870Y-55472735D01*
X121191383Y-55698164D01*
X121656036Y-55857807D01*
X122146413Y-55827482D01*
X122458617Y-55698164D01*
X122508129Y-55472737D01*
X122623822Y-55588430D01*
X122677970Y-55534282D01*
X122767191Y-55667809D01*
X122977235Y-55808157D01*
X123225000Y-55857440D01*
X124425000Y-55857440D01*
X124672765Y-55808157D01*
X124882809Y-55667809D01*
X125023157Y-55457765D01*
X125061318Y-55265914D01*
X125222929Y-55157929D01*
X125265331Y-55094470D01*
X126630001Y-53729800D01*
X126630001Y-56165199D01*
X126630001Y-56165199D01*
G37*
X126630001Y-56165199D02*
X123795325Y-58999876D01*
X123768864Y-58935995D01*
X123522745Y-58861861D01*
X122694605Y-59690000D01*
X122708748Y-59704143D01*
X122529143Y-59883748D01*
X122515000Y-59869605D01*
X122500858Y-59883748D01*
X122321253Y-59704143D01*
X122335395Y-59690000D01*
X121507255Y-58861861D01*
X121261136Y-58935995D01*
X121258710Y-58942746D01*
X121231534Y-58877138D01*
X121036651Y-58682255D01*
X121686861Y-58682255D01*
X122515000Y-59510395D01*
X123343139Y-58682255D01*
X123269005Y-58436136D01*
X122731777Y-58243035D01*
X122161546Y-58270222D01*
X121760995Y-58436136D01*
X121686861Y-58682255D01*
X121036651Y-58682255D01*
X120827862Y-58473466D01*
X120782953Y-58454864D01*
X120789888Y-58419999D01*
X120775000Y-58345152D01*
X120775000Y-58345148D01*
X120730904Y-58123463D01*
X120658507Y-58015113D01*
X120605329Y-57935526D01*
X120605327Y-57935524D01*
X120562929Y-57872071D01*
X120499476Y-57829673D01*
X118917341Y-56247539D01*
X118948200Y-56173038D01*
X118948200Y-55586962D01*
X118723919Y-55045499D01*
X118309501Y-54631081D01*
X118258607Y-54610000D01*
X118309501Y-54588919D01*
X118723919Y-54174501D01*
X118754778Y-54100000D01*
X120694364Y-54100000D01*
X120577193Y-54441036D01*
X120607518Y-54931413D01*
X120736836Y-55243617D01*
X120962265Y-55293130D01*
X121645395Y-54610000D01*
X121631253Y-54595858D01*
X121810858Y-54416253D01*
X121825000Y-54430395D01*
X121839143Y-54416253D01*
X122018748Y-54595858D01*
X122004605Y-54610000D01*
X122018748Y-54624143D01*
X121839143Y-54803748D01*
X121825000Y-54789605D01*
X121141870Y-55472735D01*
X121191383Y-55698164D01*
X121656036Y-55857807D01*
X122146413Y-55827482D01*
X122458617Y-55698164D01*
X122508129Y-55472737D01*
X122623822Y-55588430D01*
X122677970Y-55534282D01*
X122767191Y-55667809D01*
X122977235Y-55808157D01*
X123225000Y-55857440D01*
X124425000Y-55857440D01*
X124672765Y-55808157D01*
X124882809Y-55667809D01*
X125023157Y-55457765D01*
X125061318Y-55265914D01*
X125222929Y-55157929D01*
X125265331Y-55094470D01*
X126630001Y-53729800D01*
X126630001Y-56165199D01*
G36*
X107931799Y-49561952D02*
X107916911Y-49636799D01*
X107931799Y-49711646D01*
X107931799Y-49711650D01*
X107975895Y-49933335D01*
X108143870Y-50184728D01*
X108207329Y-50227130D01*
X108412659Y-50432461D01*
X108381800Y-50506962D01*
X108381800Y-51093038D01*
X108606081Y-51634501D01*
X109020499Y-52048919D01*
X109071393Y-52070000D01*
X109020499Y-52091081D01*
X108606081Y-52505499D01*
X108575222Y-52580000D01*
X106874846Y-52580000D01*
X106799999Y-52565112D01*
X106725152Y-52580000D01*
X105625837Y-52580000D01*
X105675000Y-52461309D01*
X105675000Y-51720750D01*
X105516250Y-51562000D01*
X104267000Y-51562000D01*
X104267000Y-51582000D01*
X104013000Y-51582000D01*
X104013000Y-51562000D01*
X103993000Y-51562000D01*
X103993000Y-51308000D01*
X104013000Y-51308000D01*
X104013000Y-51288000D01*
X104267000Y-51288000D01*
X104267000Y-51308000D01*
X105516250Y-51308000D01*
X105675000Y-51149250D01*
X105675000Y-50873476D01*
X105847930Y-50757928D01*
X105873965Y-50718963D01*
X105912930Y-50692928D01*
X106080905Y-50441536D01*
X106125001Y-50219851D01*
X106125001Y-50219846D01*
X106139889Y-50144999D01*
X106125001Y-50070152D01*
X106125001Y-49254800D01*
X107931800Y-47448002D01*
X107931799Y-49561952D01*
X107931799Y-49561952D01*
G37*
X107931799Y-49561952D02*
X107916911Y-49636799D01*
X107931799Y-49711646D01*
X107931799Y-49711650D01*
X107975895Y-49933335D01*
X108143870Y-50184728D01*
X108207329Y-50227130D01*
X108412659Y-50432461D01*
X108381800Y-50506962D01*
X108381800Y-51093038D01*
X108606081Y-51634501D01*
X109020499Y-52048919D01*
X109071393Y-52070000D01*
X109020499Y-52091081D01*
X108606081Y-52505499D01*
X108575222Y-52580000D01*
X106874846Y-52580000D01*
X106799999Y-52565112D01*
X106725152Y-52580000D01*
X105625837Y-52580000D01*
X105675000Y-52461309D01*
X105675000Y-51720750D01*
X105516250Y-51562000D01*
X104267000Y-51562000D01*
X104267000Y-51582000D01*
X104013000Y-51582000D01*
X104013000Y-51562000D01*
X103993000Y-51562000D01*
X103993000Y-51308000D01*
X104013000Y-51308000D01*
X104013000Y-51288000D01*
X104267000Y-51288000D01*
X104267000Y-51308000D01*
X105516250Y-51308000D01*
X105675000Y-51149250D01*
X105675000Y-50873476D01*
X105847930Y-50757928D01*
X105873965Y-50718963D01*
X105912930Y-50692928D01*
X106080905Y-50441536D01*
X106125001Y-50219851D01*
X106125001Y-50219846D01*
X106139889Y-50144999D01*
X106125001Y-50070152D01*
X106125001Y-49254800D01*
X107931800Y-47448002D01*
X107931799Y-49561952D01*
G36*
X109982000Y-48133000D02*
X110002000Y-48133000D01*
X110002000Y-48387000D01*
X109982000Y-48387000D01*
X109982000Y-48407000D01*
X109728000Y-48407000D01*
X109728000Y-48387000D01*
X109708000Y-48387000D01*
X109708000Y-48133000D01*
X109728000Y-48133000D01*
X109728000Y-48113000D01*
X109982000Y-48113000D01*
X109982000Y-48133000D01*
X109982000Y-48133000D01*
G37*
X109982000Y-48133000D02*
X110002000Y-48133000D01*
X110002000Y-48387000D01*
X109982000Y-48387000D01*
X109982000Y-48407000D01*
X109728000Y-48407000D01*
X109728000Y-48387000D01*
X109708000Y-48387000D01*
X109708000Y-48133000D01*
X109728000Y-48133000D01*
X109728000Y-48113000D01*
X109982000Y-48113000D01*
X109982000Y-48133000D01*
G36*
X111193196Y-48132998D02*
X111169452Y-48132998D01*
X111181324Y-48121126D01*
X111193196Y-48132998D01*
X111193196Y-48132998D01*
G37*
X111193196Y-48132998D02*
X111169452Y-48132998D01*
X111181324Y-48121126D01*
X111193196Y-48132998D01*
G04 #@! TD*
M02*
